<svg width="194" height="194" viewBox="0 0 194 194" fill="none" xmlns="http://www.w3.org/2000/svg">
<rect width="194" height="194" fill="#23395B"/>
<path d="M166 103.216C164.791 116.294 159.883 128.758 151.85 139.148C143.816 149.538 132.99 157.426 120.638 161.888C108.285 166.349 94.9171 167.201 82.0982 164.343C69.2793 161.484 57.5395 155.034 48.2526 145.747C38.9657 136.46 32.5157 124.721 29.6574 111.902C26.7991 99.0829 27.6507 85.7151 32.1125 73.3625C36.5743 61.0099 44.4619 50.1835 54.8522 42.1501C65.2425 34.1167 77.7058 29.2086 90.7838 28C83.127 38.3587 79.4426 51.1215 80.4005 63.9671C81.3584 76.8128 86.8951 88.8879 96.0036 97.9964C105.112 107.105 117.187 112.642 130.033 113.6C142.879 114.557 155.641 110.873 166 103.216Z" fill="#D9D9D9" stroke="black" stroke-width="15.3659" stroke-linecap="round" stroke-linejoin="round"/>
</svg>
